<svg width="488" height="492" xmlns="http://www.w3.org/2000/svg" xmlns:xlink="http://www.w3.org/1999/xlink" xml:space="preserve" overflow="hidden"><defs><clipPath id="clip0"><rect x="400" y="108" width="488" height="492"/></clipPath><clipPath id="clip1"><rect x="400" y="108" width="488" height="492"/></clipPath></defs><g clip-path="url(#clip0)" transform="translate(-400 -108)"><g clip-path="url(#clip1)"><path d="M1.02246 486.685C1.02245 337.724 1.02245 188.763 1.30489 39.6759 2.04667 39.0774 2.75527 38.6819 2.92918 38.1208 8.40494 20.4519 20.0907 8.94352 37.4887 2.99674 38.0973 2.78871 38.4051 1.70045 38.853 1.02245 187.814 1.02245 336.775 1.02245 485.862 1.30491 486.461 2.0467 486.856 2.75528 487.418 2.92919 505.086 8.40498 516.595 20.0908 522.542 37.4887 522.75 38.0973 523.838 38.4051 524.516 38.853 524.516 187.814 524.516 336.775 524.233 485.862 523.492 486.461 522.783 486.856 522.609 487.417 517.133 505.086 505.447 516.595 488.049 522.542 487.441 522.75 487.133 523.838 486.685 524.516 337.724 524.516 188.763 524.516 39.6759 524.233 39.0774 523.492 38.6819 522.783 38.1207 522.609 20.4519 517.133 8.94351 505.447 2.99677 488.049 2.78875 487.441 1.70046 487.133 1.02246 486.685M328.824 132.015C329.673 128.049 330.521 124.083 331.466 119.665 366.407 119.665 401.076 119.665 435.872 119.665 435.872 110.213 435.872 101.301 435.872 92.4642 366.222 92.4642 296.985 92.4642 227.572 92.4642 227.572 101.62 227.572 110.402 227.572 119.711 252.305 119.711 276.759 119.711 301.064 119.711 301.3 120.566 301.52 120.919 301.46 121.214 298.716 134.712 295.883 148.192 293.232 161.708 292.642 164.716 290.83 164.821 288.442 164.81 275.325 164.749 262.208 164.781 249.092 164.781 245.577 164.781 242.062 164.781 238.562 164.781 238.562 174.08 238.562 182.66 238.562 191.808 254.701 191.808 270.438 191.808 286.854 191.808 283.137 209.741 279.564 226.977 275.901 244.643 258.228 244.643 240.929 244.643 223.352 244.643 223.352 254.265 223.352 263.361 223.352 272.636 298.289 272.636 372.945 272.636 447.546 272.636 447.546 263.167 447.546 254.063 447.546 244.454 436.197 244.454 425.202 244.454 413.491 244.454 413.491 217.665 413.491 191.38 413.491 164.689 382.661 164.689 352.555 164.689 321.989 164.689 324.25 153.744 326.409 143.291 328.824 132.015M285.799 433.448C321.345 433.448 356.892 433.448 393.071 433.448 393.071 439.927 393.071 445.791 393.071 451.486 403.145 451.486 412.577 451.486 421.935 451.486 421.935 404.421 421.935 357.796 421.935 310.885 363.039 310.885 304.409 310.885 245.789 310.885 245.789 358.157 245.789 405.057 245.789 451.78 255.634 451.78 265.069 451.78 275.072 451.78 275.072 445.477 275.072 439.616 275.072 433.448 278.698 433.448 281.743 433.448 285.799 433.448M186.576 305.71C154.281 305.71 121.986 305.71 89.4838 305.71 89.3849 307.755 89.2642 309.091 89.2639 310.427 89.254 355.41 89.2554 400.392 89.2566 445.375 89.2566 446.226 88.9913 447.23 89.3483 447.895 89.8899 448.904 90.8533 450.42 91.6649 450.438 100.286 450.622 108.912 450.552 118.192 450.552 118.192 441.835 118.192 433.769 118.192 425.531 135.646 425.531 152.429 425.531 169.736 425.531 169.736 431.65 169.736 437.527 169.736 443.573 179.514 443.573 188.763 443.573 198.08 443.573 198.08 397.506 198.08 351.783 198.08 305.71 194.353 305.71 190.972 305.71 186.576 305.71M78.4222 140.598C78.4222 145.801 78.4222 151.004 78.4222 156.175 123.016 156.175 166.834 156.175 210.664 156.175 210.664 146.942 210.664 138.142 210.664 128.905 194.972 128.905 179.536 128.905 163.886 128.905 163.322 126.958 162.92 125.337 162.386 123.761 157.923 110.572 153.774 97.2625 148.848 84.2481 144.884 73.7735 144.456 73.9071 133.724 76.816 127.78 78.4271 121.864 80.142 116.204 81.7348 122.886 97.5476 129.276 112.67 136.106 128.834 116.04 128.834 97.4296 128.834 78.4222 128.834 78.4222 132.824 78.4222 136.203 78.4222 140.598M154.901 188.284C133.86 188.284 112.818 188.284 91.2828 188.284 91.2828 196.03 91.5851 203.001 91.1773 209.929 90.9022 214.604 92.5827 215.573 96.9641 215.548 128.137 215.368 159.312 215.456 190.486 215.441 192.3 215.441 194.113 215.292 195.947 215.211 195.947 206.052 195.947 197.439 195.947 188.284 182.408 188.284 169.166 188.284 154.901 188.284M95.8434 272.045C129.129 272.045 162.415 272.045 195.956 272.045 195.956 262.918 195.956 254.345 195.956 245.519 161.08 245.519 126.486 245.519 91.3341 245.519 91.3341 253.761 91.2295 261.716 91.4895 269.659 91.5167 270.49 93.6992 271.25 95.8434 272.045Z" fill="#209CEE" fill-rule="nonzero" fill-opacity="1" transform="matrix(1.00104 0 0 1 383.482 92.4994)"/><path d="M38.3738 1.02245C38.4051 1.70045 38.0973 2.78871 37.4887 2.99674 20.0907 8.94352 8.40494 20.4519 2.92918 38.1208 2.75527 38.6819 2.04667 39.0774 1.30489 39.2016 1.02245 26.3179 1.02245 13.7827 1.02245 1.02245 13.3123 1.02245 25.6035 1.02245 38.3738 1.02245Z" fill="#000000" fill-rule="nonzero" fill-opacity="1" transform="matrix(1.00104 0 0 1 383.482 92.4994)"/><path d="M524.516 38.3738C523.838 38.4051 522.75 38.0973 522.542 37.4887 516.595 20.0908 505.086 8.40498 487.418 2.92919 486.856 2.75528 486.461 2.0467 486.337 1.30491 499.22 1.02245 511.756 1.02245 524.516 1.02245 524.516 13.3123 524.516 25.6035 524.516 38.3738Z" fill="#000000" fill-rule="nonzero" fill-opacity="1" transform="matrix(1.00104 0 0 1 383.482 92.4994)"/><path d="M1.02246 487.164C1.70046 487.133 2.78875 487.441 2.99677 488.049 8.94351 505.447 20.4519 517.133 38.1207 522.609 38.6819 522.783 39.0774 523.492 39.2016 524.233 26.3179 524.516 13.7827 524.516 1.02245 524.516 1.02245 512.226 1.02245 499.935 1.02246 487.164Z" fill="#000000" fill-rule="nonzero" fill-opacity="1" transform="matrix(1.00104 0 0 1 383.482 92.4994)"/><path d="M487.164 524.516C487.133 523.838 487.441 522.75 488.049 522.542 505.447 516.595 517.133 505.086 522.609 487.417 522.783 486.856 523.492 486.461 524.233 486.337 524.516 499.22 524.516 511.756 524.516 524.516 512.226 524.516 499.935 524.516 487.164 524.516Z" fill="#000000" fill-rule="nonzero" fill-opacity="1" transform="matrix(1.00104 0 0 1 383.482 92.4994)"/><path d="M328.696 132.427C326.409 143.291 324.25 153.744 321.989 164.689 352.555 164.689 382.661 164.689 413.491 164.689 413.491 191.38 413.491 217.665 413.491 244.454 425.202 244.454 436.197 244.454 447.546 244.454 447.546 254.063 447.546 263.167 447.546 272.636 372.945 272.636 298.289 272.636 223.352 272.636 223.352 263.361 223.352 254.265 223.352 244.643 240.929 244.643 258.228 244.643 275.901 244.643 279.564 226.977 283.137 209.741 286.854 191.808 270.438 191.808 254.701 191.808 238.562 191.808 238.562 182.66 238.562 174.08 238.562 164.781 242.062 164.781 245.577 164.781 249.092 164.781 262.208 164.781 275.325 164.749 288.442 164.81 290.83 164.821 292.642 164.716 293.232 161.708 295.883 148.192 298.716 134.712 301.46 121.214 301.52 120.919 301.3 120.566 301.064 119.711 276.759 119.711 252.305 119.711 227.572 119.711 227.572 110.402 227.572 101.62 227.572 92.4642 296.985 92.4642 366.222 92.4642 435.872 92.4642 435.872 101.301 435.872 110.213 435.872 119.665 401.076 119.665 366.407 119.665 331.466 119.665 330.521 124.083 329.673 128.049 328.696 132.427M349.166 191.5C338.302 191.5 327.437 191.5 316.282 191.5 312.56 209.323 308.942 226.655 305.304 244.078 332.102 244.078 358.029 244.078 383.999 244.078 383.999 226.484 383.999 209.352 383.999 191.5 372.553 191.5 361.371 191.5 349.166 191.5Z" fill="#FDFEFF" fill-rule="nonzero" fill-opacity="1" transform="matrix(1.00104 0 0 1 383.482 92.4994)"/><path d="M285.293 433.448C281.743 433.448 278.698 433.448 275.072 433.448 275.072 439.616 275.072 445.477 275.072 451.78 265.069 451.78 255.634 451.78 245.789 451.78 245.789 405.057 245.789 358.157 245.789 310.885 304.409 310.885 363.039 310.885 421.935 310.885 421.935 357.796 421.935 404.421 421.935 451.486 412.577 451.486 403.145 451.486 393.071 451.486 393.071 445.791 393.071 439.927 393.071 433.448 356.892 433.448 321.345 433.448 285.293 433.448M351.211 405.835C364.955 405.835 378.7 405.835 392.518 405.835 392.518 382.957 392.518 360.749 392.518 338.483 353.192 338.483 314.269 338.483 275.259 338.483 275.259 361.041 275.259 383.243 275.259 405.835 300.491 405.835 325.34 405.835 351.211 405.835Z" fill="#FDFEFF" fill-rule="nonzero" fill-opacity="1" transform="matrix(1.00104 0 0 1 383.482 92.4994)"/><path d="M187.083 305.71C190.972 305.71 194.353 305.71 198.08 305.71 198.08 351.783 198.08 397.506 198.08 443.573 188.763 443.573 179.514 443.573 169.736 443.573 169.736 437.527 169.736 431.65 169.736 425.531 152.429 425.531 135.646 425.531 118.192 425.531 118.192 433.769 118.192 441.835 118.192 450.552 108.912 450.552 100.286 450.622 91.6649 450.438 90.8533 450.42 89.8899 448.904 89.3483 447.895 88.9913 447.23 89.2566 446.226 89.2566 445.375 89.2554 400.392 89.254 355.41 89.2639 310.427 89.2642 309.091 89.3849 307.755 89.4838 305.71 121.986 305.71 154.281 305.71 187.083 305.71M142.631 333.316C134.651 333.316 126.671 333.316 118.417 333.316 118.417 354.9 118.417 376.091 118.417 397.243 135.682 397.243 152.598 397.243 169.412 397.243 169.412 375.782 169.412 354.74 169.412 333.316 160.617 333.316 152.136 333.316 142.631 333.316Z" fill="#FEFEFF" fill-rule="nonzero" fill-opacity="1" transform="matrix(1.00104 0 0 1 383.482 92.4994)"/><path d="M78.4222 140.09C78.4222 136.203 78.4222 132.824 78.4222 128.834 97.4296 128.834 116.04 128.834 136.106 128.834 129.276 112.67 122.886 97.5476 116.204 81.7348 121.864 80.142 127.78 78.4271 133.724 76.816 144.456 73.9071 144.884 73.7735 148.848 84.2481 153.774 97.2625 157.923 110.572 162.386 123.761 162.92 125.337 163.322 126.958 163.886 128.905 179.536 128.905 194.972 128.905 210.664 128.905 210.664 138.142 210.664 146.942 210.664 156.175 166.834 156.175 123.016 156.175 78.4222 156.175 78.4222 151.004 78.4222 145.801 78.4222 140.09Z" fill="#FEFFFF" fill-rule="nonzero" fill-opacity="1" transform="matrix(1.00104 0 0 1 383.482 92.4994)"/><path d="M155.412 188.284C169.166 188.284 182.408 188.284 195.947 188.284 195.947 197.439 195.947 206.052 195.947 215.211 194.113 215.292 192.3 215.441 190.486 215.441 159.312 215.456 128.137 215.368 96.9641 215.548 92.5827 215.573 90.9022 214.604 91.1773 209.929 91.5851 203.001 91.2828 196.03 91.2828 188.284 112.818 188.284 133.86 188.284 155.412 188.284Z" fill="#F9FCFF" fill-rule="nonzero" fill-opacity="1" transform="matrix(1.00104 0 0 1 383.482 92.4994)"/><path d="M95.3625 272.044C93.6992 271.25 91.5167 270.49 91.4895 269.659 91.2295 261.716 91.3341 253.761 91.3341 245.519 126.486 245.519 161.08 245.519 195.956 245.519 195.956 254.345 195.956 262.918 195.956 272.045 162.415 272.045 129.129 272.045 95.3625 272.044Z" fill="#FEFFFF" fill-rule="nonzero" fill-opacity="1" transform="matrix(1.00104 0 0 1 383.482 92.4994)"/><path d="M349.677 191.5C361.371 191.5 372.553 191.5 383.999 191.5 383.999 209.352 383.999 226.484 383.999 244.078 358.029 244.078 332.102 244.078 305.304 244.078 308.942 226.655 312.56 209.323 316.282 191.5 327.437 191.5 338.302 191.5 349.677 191.5Z" fill="#239DEE" fill-rule="nonzero" fill-opacity="1" transform="matrix(1.00104 0 0 1 383.482 92.4994)"/><path d="M350.7 405.835C325.34 405.835 300.491 405.835 275.259 405.835 275.259 383.243 275.259 361.041 275.259 338.483 314.269 338.483 353.192 338.483 392.518 338.483 392.518 360.749 392.518 382.957 392.518 405.835 378.7 405.835 364.955 405.835 350.7 405.835Z" fill="#209CEE" fill-rule="nonzero" fill-opacity="1" transform="matrix(1.00104 0 0 1 383.482 92.4994)"/><path d="M143.143 333.316C152.136 333.316 160.617 333.316 169.412 333.316 169.412 354.74 169.412 375.782 169.412 397.243 152.598 397.243 135.682 397.243 118.417 397.243 118.417 376.091 118.417 354.9 118.417 333.316 126.671 333.316 134.651 333.316 143.143 333.316Z" fill="#239DEE" fill-rule="nonzero" fill-opacity="1" transform="matrix(1.00104 0 0 1 383.482 92.4994)"/></g></g></svg>